<?xml version="1.0" standalone="no"?>
<!DOCTYPE svg PUBLIC "-//W3C//DTD SVG 20010904//EN"
 "http://www.w3.org/TR/2001/REC-SVG-20010904/DTD/svg10.dtd">
<svg version="1.0" xmlns="http://www.w3.org/2000/svg"
 width="471.000000pt" height="530.000000pt" viewBox="0 0 471.000000 530.000000"
 preserveAspectRatio="xMidYMid meet">

<g transform="translate(0.000000,530.000000) scale(0.100000,-0.100000)"
fill="#000000" stroke="none">
<path d="M2245 5025 c-95 -35 -96 -35 -185 -73 -47 -20 -111 -53 -143 -74 -32
-21 -60 -38 -63 -38 -2 0 -4 23 -4 50 0 33 -4 50 -13 50 -6 0 -35 -21 -62 -47
-94 -87 -122 -103 -170 -96 -56 7 -140 -19 -185 -59 -19 -17 -34 -34 -33 -39
2 -5 -1 -9 -5 -9 -5 0 -21 -23 -36 -50 l-28 -51 -112 3 -113 3 -68 -60 c-130
-113 -344 -328 -338 -338 3 -6 2 -7 -4 -4 -14 9 -43 -36 -81 -123 -35 -80 -70
-122 -247 -291 -100 -95 -131 -132 -169 -197 -31 -53 -101 -232 -91 -232 2 0
0 -12 -6 -27 -6 -16 -26 -129 -45 -253 l-33 -224 54 -113 c80 -165 120 -287
140 -426 7 -53 -4 -77 -38 -77 -19 0 -20 -4 -14 -91 3 -50 10 -96 15 -102 5
-7 15 -29 21 -49 7 -21 29 -70 48 -110 20 -40 38 -79 39 -86 1 -8 14 -37 27
-65 59 -124 149 -342 179 -434 13 -43 28 -73 36 -73 25 0 70 -56 77 -96 10
-60 55 -185 83 -229 26 -41 70 -87 108 -112 40 -26 89 -36 199 -42 l110 -6 70
-47 c82 -55 137 -77 220 -85 60 -5 162 -50 335 -147 36 -20 75 -42 88 -48 12
-6 22 -15 22 -20 0 -11 38 -10 45 2 13 21 25 9 25 -24 l0 -35 48 5 c26 3 78 9
117 15 116 16 358 10 461 -12 49 -11 96 -19 104 -18 97 10 147 3 224 -33 89
-43 141 -50 131 -19 -9 28 27 48 115 67 41 8 78 17 82 21 5 3 28 -16 52 -41
51 -56 66 -58 66 -10 0 62 13 74 80 74 l60 0 0 45 c0 42 5 51 62 113 67 73 85
90 142 140 l39 34 40 -39 c24 -23 37 -31 33 -20 -3 10 -6 22 -6 27 0 4 -16 27
-35 50 -26 31 -33 46 -25 55 14 16 97 39 132 37 16 -1 28 2 28 7 0 24 34 41
83 41 68 1 96 22 104 79 4 30 17 55 47 89 170 192 307 426 424 721 12 30 -70
-44 -113 -103 -25 -33 -52 -70 -60 -81 -10 -12 -25 -18 -44 -17 -26 2 -30 -2
-40 -43 -13 -50 -32 -53 -24 -4 l4 30 -44 -33 c-25 -18 -132 -99 -238 -179
-205 -155 -538 -388 -601 -420 -51 -26 -83 -24 -107 6 -15 20 -21 23 -28 12
-4 -8 -20 -22 -36 -32 -22 -14 -30 -15 -42 -5 -8 7 -15 18 -15 25 0 14 -46 26
-66 18 -7 -3 -16 -13 -19 -24 -7 -20 -35 -27 -35 -8 0 5 -4 7 -10 4 -5 -3 -10
-20 -10 -38 0 -29 -1 -30 -15 -11 -14 19 -15 18 -35 -6 -21 -27 -23 -26 -52
25 -11 19 -12 19 -18 -5 -4 -14 -12 -24 -18 -23 -7 2 -12 -5 -12 -15 0 -10
-19 -36 -42 -58 -41 -39 -47 -41 -143 -54 -55 -7 -127 -18 -159 -25 -51 -10
-72 -9 -145 7 -136 28 -319 57 -411 63 -183 14 -326 52 -435 118 -11 7 -30 18
-43 25 l-23 13 31 29 c34 32 42 57 11 38 -11 -7 -18 -14 -16 -18 2 -3 -11 -6
-28 -8 -18 -1 -39 -3 -48 -5 -8 -1 -73 52 -143 118 -71 66 -133 119 -138 117
-5 -1 -7 2 -4 6 3 5 -31 42 -77 82 -122 109 -423 416 -456 467 -27 40 -65 124
-136 296 -22 53 -30 65 -41 56 -21 -17 -49 -2 -63 36 -15 42 -1 75 31 75 20 0
20 3 13 58 -12 100 -15 116 -25 171 -6 30 -10 72 -10 94 0 45 19 117 31 117
13 0 39 99 39 148 0 25 4 72 10 106 5 33 17 133 26 221 31 300 69 429 183 623
69 117 137 200 281 342 204 203 314 300 338 300 6 0 12 3 14 8 3 7 125 82 133
82 15 0 124 78 118 85 -5 4 -2 5 4 1 7 -4 47 13 90 38 157 90 309 149 448 176
33 6 134 13 225 16 223 7 240 16 240 133 0 34 -2 36 -31 37 -19 1 -43 13 -62
32 -62 58 -80 61 -172 27z m-1893 -3081 c19 -58 15 -67 -15 -33 -48 53 -50 58
-37 74 20 24 34 13 52 -41z m92 -36 c36 -77 41 -94 28 -97 -20 -4 -60 41 -67
77 -6 28 -17 64 -30 95 -5 12 -3 17 9 17 10 0 31 -34 60 -92z"/>
<path d="M2962 4873 c-26 -26 -31 -28 -103 -25 -89 5 -130 -11 -149 -57 -39
-96 112 -209 305 -227 59 -5 83 -14 149 -53 44 -25 82 -44 84 -43 3 2 8 0 11
-5 3 -5 69 -52 146 -104 127 -87 305 -211 330 -231 35 -28 185 -132 208 -144
30 -16 64 -10 125 22 28 14 45 4 35 -21 -8 -22 17 -133 48 -213 29 -77 52
-107 141 -182 60 -51 77 -134 49 -238 -6 -21 0 -42 27 -93 19 -37 46 -80 59
-95 14 -16 32 -39 40 -51 8 -13 20 -20 26 -16 5 3 7 1 3 -5 -3 -6 7 -19 24
-28 22 -13 30 -26 30 -45 0 -57 25 -76 59 -45 15 13 15 8 9 -57 -19 -195 -21
-240 -10 -233 7 4 12 28 12 53 0 54 12 128 45 267 l23 99 -28 -32 c-16 -17
-33 -31 -38 -31 -5 0 -12 60 -15 133 -4 72 -18 217 -31 320 -21 160 -28 194
-51 230 -14 23 -46 76 -71 117 -25 41 -60 98 -78 125 -18 28 -57 90 -87 139
-141 231 -228 361 -239 358 -6 -1 -9 1 -6 6 8 13 -124 144 -183 182 -13 8 -41
28 -63 43 -46 33 -194 107 -274 137 -144 54 -235 70 -388 70 l-147 0 -27 -27z"/>
<path d="M2287 3740 c-117 -45 -220 -157 -307 -337 -64 -133 -134 -339 -164
-484 -9 -42 -18 -83 -20 -90 -3 -8 -7 -30 -10 -49 -7 -45 -24 -134 -37 -185
-16 -69 -26 -294 -17 -403 9 -108 34 -178 81 -229 24 -27 101 -32 145 -9 91
48 168 200 197 391 13 83 14 85 44 85 15 0 52 4 82 10 128 23 234 38 241 34 5
-3 8 -49 8 -102 0 -184 47 -359 112 -419 43 -39 137 -48 190 -17 20 11 60 61
76 94 45 95 64 240 52 396 -17 193 -25 258 -61 459 -66 378 -121 569 -195 687
-40 64 -119 135 -179 163 -68 31 -164 33 -238 5z m125 -444 c49 -37 84 -185
87 -367 l2 -105 -123 -17 c-68 -9 -135 -17 -150 -17 -27 0 -27 1 -22 48 23
214 72 396 122 455 18 20 60 22 84 3z"/>
</g>
</svg>
